<svg width="64" height="44" viewBox="0 0 64 44" fill="none" xmlns="http://www.w3.org/2000/svg">
<path d="M48.2793 0L42.0466 6.19582L42.626 6.79401C42.2132 7.12542 41.7955 7.44875 41.39 7.73579C40.7355 8.20053 40.1073 8.57332 39.6814 8.74815C39.6539 8.76033 39.5381 8.79264 39.3084 8.79165C38.9414 8.79562 38.3275 8.70268 37.5754 8.5886C36.8201 8.4754 35.9166 8.35226 34.8983 8.35114C34.0098 8.34816 33.03 8.45527 31.9984 8.7371C30.9689 8.45627 29.991 8.35114 29.1047 8.35226C28.0852 8.35226 27.1818 8.47552 26.4265 8.58972C25.6744 8.70379 25.0615 8.79687 24.6946 8.79277C24.4639 8.79475 24.349 8.76046 24.3256 8.74927C23.8713 8.56437 23.1861 8.15207 22.4809 7.64185C22.116 7.37817 21.744 7.08914 21.375 6.79215L21.9534 6.19594L15.7207 0.000124194L0 16.1866L6.23263 22.3824L8.057 20.5041L12.084 23.9979C12.1967 24.6678 12.4093 25.3003 12.6543 25.9006C12.8138 26.2826 12.9886 26.6503 13.1676 26.9959C12.7783 27.6366 12.5659 28.3681 12.5679 29.1097C12.5669 29.8453 12.7701 30.597 13.1879 31.2649C13.8231 32.2804 14.8406 32.9189 15.9392 33.121C15.9455 33.8434 16.1467 34.5801 16.5562 35.2348C17.3339 36.4777 18.6796 37.1667 20.0518 37.1646C20.1046 37.1646 20.1585 37.1565 20.2113 37.1545C20.2804 37.7325 20.4715 38.3084 20.7987 38.8318C21.5764 40.0746 22.923 40.7637 24.2931 40.7616C24.4294 40.7616 24.5646 40.7474 24.7017 40.7343C24.7668 41.2547 24.9406 41.774 25.2344 42.2428C25.9429 43.3746 27.1686 44.003 28.4156 44C29.0885 44.001 29.7776 43.8191 30.3895 43.4412L32.2578 42.2854C32.6258 42.5218 33.0119 42.7299 33.4174 42.8997C34.1726 43.2159 34.9888 43.4099 35.8375 43.4109C36.7685 43.415 37.7514 43.1613 38.597 42.5702C39.1479 42.1884 39.6144 41.6649 39.9965 41.0477C40.0555 41.0496 40.1032 41.0598 40.1642 41.0608C40.5515 41.0608 40.9764 41.0032 41.3973 40.8728C41.821 40.7446 42.2419 40.5525 42.6911 40.297C43.7624 39.6968 44.4047 38.8137 44.7169 38.0569C44.786 37.8913 44.8358 37.7356 44.8805 37.5851C45.1398 37.5033 45.3878 37.4032 45.6123 37.2739C46.4406 36.8 46.9804 36.0797 47.3128 35.3562C47.6461 34.6256 47.7925 33.8668 47.7945 33.1374C47.7945 33.0656 47.7854 32.9959 47.7822 32.9252C48.324 32.705 48.8107 32.3988 49.2255 32.038C49.6504 31.6681 50.0071 31.2378 50.2724 30.7467C50.5367 30.2578 50.7136 29.698 50.7146 29.0847C50.7156 28.6856 50.6333 28.2652 50.4534 27.8712C50.3954 27.7459 50.3131 27.6307 50.2379 27.5145C50.5541 26.9516 50.8761 26.3173 51.1404 25.6322C51.3386 25.1138 51.5054 24.5703 51.6009 23.9993L55.7996 20.3568L57.7674 22.3827L64 16.1866L48.2793 0ZM17.343 30.006L17.2708 30.0515C17.0828 30.1668 16.8855 30.2182 16.6822 30.2192C16.3051 30.2172 15.9432 30.0343 15.7309 29.6938C15.615 29.507 15.5621 29.3099 15.5621 29.1098C15.5641 28.7329 15.7471 28.3752 16.0886 28.1641L18.5575 26.6394C18.7455 26.5232 18.9428 26.4727 19.1439 26.4706C19.523 26.4746 19.8829 26.6545 20.0964 26.997L21.3679 26.2119L20.0964 26.998C20.2122 27.1839 20.264 27.3798 20.2651 27.58C20.263 27.8427 20.1685 28.0934 19.9979 28.2954L17.8775 29.6049C17.6845 29.724 17.5086 29.8625 17.343 30.006ZM20.6391 34.0203C20.4511 34.1355 20.2539 34.188 20.0516 34.188C19.6735 34.186 19.3118 34.0041 19.0993 33.6636C18.9833 33.4768 18.9315 33.2787 18.9305 33.0786C18.9314 32.818 19.026 32.5674 19.1957 32.3673L21.317 31.0549C21.5091 30.9366 21.683 30.7993 21.8486 30.6558L21.9259 30.6093C22.1139 30.4931 22.3121 30.4415 22.5124 30.4415C22.8925 30.4435 23.2512 30.6254 23.4646 30.9669C23.5805 31.1538 23.6324 31.3488 23.6334 31.5499C23.6314 31.9247 23.4495 32.2845 23.1039 32.4977L20.6391 34.0203ZM27.3464 36.0937L24.8806 37.6174C24.6936 37.7327 24.4964 37.7852 24.2931 37.7852C23.916 37.7832 23.5541 37.6012 23.3417 37.2608C23.2259 37.0729 23.1741 36.8768 23.173 36.6757C23.1761 36.2989 23.358 35.9422 23.6995 35.73L26.1684 34.2053C26.3564 34.0891 26.5536 34.0387 26.7547 34.0387C27.1339 34.0395 27.4938 34.2215 27.7073 34.563C27.823 34.7501 27.8749 34.946 27.876 35.1471C27.8739 35.5217 27.692 35.8794 27.3464 36.0937ZM31.1691 38.5792C31.2472 38.7034 31.2809 38.8328 31.2819 38.9681C31.2799 39.2198 31.1589 39.4592 30.9261 39.6037L28.8089 40.9111C28.6829 40.9899 28.5528 41.0232 28.4155 41.0232C28.1615 41.0222 27.9206 40.8999 27.7773 40.6716C27.699 40.5453 27.6654 40.4159 27.6644 40.2807C27.6674 40.027 27.7884 39.7895 28.017 39.6481H28.018L30.1373 38.3386C30.2664 38.2588 30.3955 38.2254 30.5306 38.2254C30.7857 38.2274 31.0246 38.3477 31.1679 38.5771L32.4404 37.793L31.1691 38.5792ZM47.6339 29.3391C47.5251 29.5482 47.2771 29.821 46.9631 30.012C46.649 30.2051 46.2841 30.3181 45.9345 30.3171C45.8104 30.3171 45.6905 30.3383 45.5736 30.3686C45.3601 30.3221 45.1466 30.2575 44.9364 30.1746C44.2849 29.922 43.6761 29.5128 43.2461 29.1672C43.0306 28.9945 42.8599 28.8389 42.746 28.7308L42.62 28.6066L42.5925 28.5782L42.5884 28.5743H42.5875C42.1686 28.1216 41.4593 28.0912 41.0029 28.5075C40.5465 28.9239 40.515 29.6291 40.9349 30.0858C40.9724 30.1242 41.5366 30.7364 42.4605 31.367C42.924 31.6823 43.4779 32.0036 44.1151 32.2522C44.2625 32.3098 44.416 32.3632 44.5736 32.4118C44.6174 32.5097 44.6732 32.6028 44.7393 32.6907L44.7363 32.6928C44.7444 32.6987 44.8054 32.8909 44.8003 33.1374C44.8075 33.5486 44.657 34.0871 44.4405 34.3841C44.3349 34.5357 44.2271 34.6316 44.1225 34.6913C44.0158 34.7499 43.908 34.7883 43.7057 34.7913L43.6335 34.7903C43.5907 34.7883 43.5503 34.7954 43.5085 34.7974C43.5065 34.7974 43.5055 34.7974 43.5055 34.7974C42.5317 34.8015 41.6253 34.3862 40.9564 33.9316C40.623 33.7073 40.3556 33.4789 40.1758 33.3112C40.0872 33.2284 40.0193 33.1596 39.9775 33.1173L39.9339 33.0708L39.9268 33.0617H39.9258C39.5203 32.599 38.8139 32.5484 38.3452 32.9516C37.8756 33.3557 37.8249 34.06 38.2314 34.5268L38.2304 34.5259C38.2741 34.5744 38.7925 35.1683 39.6941 35.7787C40.2876 36.1777 41.0621 36.591 41.982 36.8295C41.9719 36.8558 41.9657 36.882 41.9535 36.9084C41.8356 37.173 41.6669 37.4458 41.2075 37.7126C40.8974 37.8885 40.6759 37.9804 40.5204 38.0268C40.3639 38.0733 40.2765 38.0825 40.1646 38.0834C40.0194 38.0855 39.8008 38.0531 39.4369 37.9793C39.3709 37.9652 39.3049 37.9611 39.2388 37.9571C39.2142 37.9469 39.191 37.9379 39.1645 37.9247C38.7925 37.7509 38.3391 37.4366 38.0047 37.1689C37.837 37.0366 37.6948 36.9153 37.5971 36.8295L37.4874 36.7304L37.462 36.7062L37.4569 36.7022C37.0086 36.2759 36.2971 36.292 35.8683 36.7375C35.4404 37.1831 35.4566 37.8904 35.9049 38.3158C35.9283 38.3369 36.4009 38.7877 37.0635 39.2605C37.1814 39.3434 37.3115 39.4273 37.4416 39.51C37.2586 39.8001 37.0676 39.9991 36.8806 40.1315C36.5818 40.3356 36.2565 40.4326 35.8377 40.4347C35.4627 40.4357 35.0215 40.3437 34.5805 40.1578C34.4341 40.0972 34.2909 40.0113 34.1465 39.9315C34.2309 39.6183 34.2776 39.2939 34.2766 38.9685C34.2776 38.2986 34.0926 37.6136 33.7125 37.0063C33.0671 35.9747 31.9908 35.3684 30.8635 35.2694C30.8635 35.2288 30.8705 35.1886 30.8705 35.1471C30.8715 34.4126 30.6682 33.6588 30.2515 32.9919V32.994C29.473 31.7472 28.1251 31.058 26.755 31.061C26.7022 31.061 26.6483 31.07 26.5955 31.0722C26.5264 30.4931 26.3353 29.9193 26.0081 29.3959H26.009C25.3738 28.3784 24.3554 27.74 23.2566 27.5398C23.2496 26.8173 23.0494 26.0807 22.6396 25.426H22.6406C21.8631 24.1822 20.5142 23.4921 19.1441 23.4941C18.4031 23.4941 17.648 23.6962 16.9761 24.1104L15.5339 25.0016C15.4993 24.9228 15.4556 24.846 15.4241 24.7671C15.1731 24.17 15.0155 23.5809 14.9983 23.1748L14.9648 22.5463L10.14 18.3593L19.2875 8.94126C19.7551 9.32224 20.2349 9.70012 20.7269 10.0538C21.542 10.6378 22.35 11.1531 23.1754 11.4987C23.705 11.7159 24.2213 11.7695 24.695 11.7705C25.4532 11.7675 26.1484 11.6381 26.8731 11.533C26.9199 11.5249 26.9686 11.5209 27.0164 11.5137C26.0204 12.3634 25.1512 13.283 24.4164 14.1389C23.7974 14.8613 23.275 15.5423 22.8612 16.098C22.4527 16.6507 22.1376 17.0963 21.9994 17.2721C21.3184 18.1532 21.0257 19.207 21.0196 20.2629C21.0226 21.245 21.2849 22.2675 21.9659 23.1315C22.3054 23.5588 22.7566 23.9327 23.2952 24.1873C23.833 24.4439 24.4489 24.5753 25.0903 24.5753C25.8861 24.5731 26.7205 24.3813 27.6039 24.0124C30.3766 22.8464 33.2348 22.0694 35.3854 21.5905C36.4608 21.352 37.3602 21.1864 37.9874 21.0823C38.1054 21.063 38.2039 21.0468 38.3015 21.0308L47.7104 29.0939L47.7144 29.0959L47.7175 29.101C47.7162 29.1299 47.7019 29.2138 47.6339 29.3391ZM48.7225 22.5462L48.6899 23.1747C48.6726 23.5343 48.5496 24.0416 48.3433 24.5671C48.2385 24.8418 48.1105 25.1188 47.9764 25.3914L39.7364 18.3307C39.4162 18.056 38.9894 17.9286 38.5696 17.9812C38.4965 17.9953 32.4529 18.7491 26.4387 21.2691C25.8401 21.5207 25.3909 21.5984 25.09 21.5965C24.8451 21.5965 24.6956 21.553 24.5849 21.5004C24.4242 21.4226 24.3094 21.3124 24.1956 21.1013C24.0869 20.8933 24.0126 20.5861 24.0138 20.2628C24.0076 19.798 24.1744 19.3251 24.3612 19.1009C24.5941 18.8018 24.8786 18.3936 25.271 17.8661C25.8533 17.082 26.6441 16.0675 27.5872 15.0804C28.5284 14.0933 29.6231 13.1375 30.7706 12.4664C32.3228 11.5602 33.6451 11.3328 34.8984 11.3287C35.6698 11.3277 36.4096 11.4236 37.1314 11.5317C37.855 11.6379 38.5522 11.7651 39.3085 11.7692C39.7811 11.7682 40.2944 11.7147 40.822 11.5004L40.829 11.4984C41.6544 11.1529 42.4624 10.6376 43.2775 10.0535C43.7665 9.70187 44.2482 9.322 44.7137 8.94213L53.7181 18.2126L48.7225 22.5462Z" fill="#F69400"/>
</svg>
