<svg width="64" height="49" viewBox="0 0 64 49" fill="none" xmlns="http://www.w3.org/2000/svg">
<path d="M17.7702 17.4102C15.8053 17.4102 14.2104 19.002 14.2104 20.9678C14.2104 22.9335 15.8053 24.5265 17.7702 24.5265C19.7349 24.5265 21.3258 22.9335 21.3258 20.9678C21.3258 19.002 19.7351 17.4102 17.7702 17.4102Z" fill="#F69400"/>
<path d="M31.9991 17.4102C30.0344 17.4102 28.4414 19.002 28.4414 20.9678C28.4414 22.9335 30.0343 24.5265 31.9991 24.5265C33.9639 24.5265 35.5569 22.9335 35.5569 20.9678C35.5569 19.002 33.9639 17.4102 31.9991 17.4102Z" fill="#F69400"/>
<path d="M46.2277 17.4102C44.2629 17.4102 42.6699 19.002 42.6699 20.9678C42.6699 22.9335 44.2628 24.5265 46.2277 24.5265C48.1944 24.5265 49.7853 22.9335 49.7853 20.9678C49.7853 19.002 48.1944 17.4102 46.2277 17.4102Z" fill="#F69400"/>
<path d="M63.9958 20.6012C63.9392 15.0888 61.7803 9.91798 57.9175 6.04111C54.0424 2.14574 48.8796 0 43.3734 0H20.6224C9.25198 0.00212499 0.00199999 9.25198 0 20.6194C0.00199999 31.9879 9.25198 41.2398 20.6224 41.2428H39.3589C39.656 41.2428 39.8138 41.3691 39.8946 41.4753C40.0866 41.7319 40.0018 42.0918 39.9714 42.1938C39.8521 42.6173 39.5509 43.2065 38.9627 44.1626C38.5079 44.9125 38.0894 45.5443 37.9985 45.6788C37.3638 46.6308 37.1455 47.4374 37.382 47.9508C37.5619 48.3379 38.0067 48.5764 38.708 48.6593C38.9425 48.6865 39.27 48.7048 39.5833 48.7048C39.745 48.7048 39.9048 48.6996 40.0422 48.6886C41.4935 48.5644 43.4544 48.3339 45.7466 47.6456C49.088 46.641 53.8787 44.5114 57.7255 40.0684C61.8411 35.3292 64.0101 28.7567 64 21.0601L63.9958 20.6012ZM57.6142 33.4937C55.5706 37.5628 52.3666 40.6656 48.0914 42.7184C46.646 43.4086 45.0956 43.9595 43.4866 44.3558L43.0703 44.4578L43.3411 43.8695C43.4401 43.6573 43.5393 43.4461 43.616 43.2248C43.7655 42.7699 43.9131 42.2706 43.9213 41.6218C43.9213 41.082 43.802 40.5361 43.5736 40.044C43.2119 39.2497 42.5145 38.5503 41.6614 38.1258C40.7901 37.6893 39.7634 37.4769 38.5243 37.4769H20.6224C16.1248 37.4769 11.8921 35.7233 8.70423 32.5397C5.52049 29.3538 3.76587 25.1201 3.76587 20.6194C3.76587 16.1218 5.52049 11.889 8.70423 8.70123C11.892 5.51849 16.1248 3.76487 20.6224 3.76487H43.3734C47.8589 3.76587 52.0776 5.51849 55.2512 8.6991C58.4147 11.8788 60.1835 16.1196 60.232 20.6386L60.234 21.0601C60.232 25.8458 59.3506 30.0291 57.6142 33.4937Z" fill="#F69400"/>
</svg>
