<svg width="64" height="50" viewBox="0 0 64 50" fill="none" xmlns="http://www.w3.org/2000/svg">
<path d="M63.8349 7.11824C63.5464 5.67177 62.902 4.34811 62.0021 3.25461C61.8124 3.01635 61.6141 2.80298 61.3992 2.5896C59.8049 0.994834 57.5671 0 55.1225 0H8.87764C6.43301 0 4.20326 0.994834 2.60138 2.5896C2.387 2.80298 2.18875 3.01635 1.9985 3.25461C1.09813 4.34798 0.453751 5.67177 0.17325 7.11824C0.0580001 7.6765 0 8.25342 0 8.83668V41.1642C0 42.4044 0.26425 43.5965 0.735501 44.6731C1.17263 45.7008 1.81713 46.6307 2.60125 47.4104C2.80001 47.6077 2.99738 47.7891 3.21276 47.9695C4.74851 49.2355 6.73089 50 8.87764 50H55.1225C57.27 50 59.261 49.2355 60.7879 47.9616C61.0026 47.7891 61.201 47.6077 61.3992 47.4104C62.183 46.6307 62.8274 45.7008 63.2735 44.6731V44.6651C63.7446 43.5886 64 42.4044 64 41.1643V8.83668C64.0001 8.25342 63.943 7.6765 63.8349 7.11824ZM5.81364 5.78649C6.60676 4.99793 7.67189 4.52055 8.87764 4.52055H55.1225C56.3282 4.52055 57.4027 4.99793 58.1865 5.78649C58.3267 5.92695 58.4589 6.08347 58.5755 6.23899L34.3371 27.2648C33.6686 27.8479 32.8428 28.1359 32.0001 28.1359C31.1658 28.1359 30.3406 27.8479 29.6632 27.2648L5.43401 6.23003C5.54126 6.07451 5.67339 5.92695 5.81364 5.78649ZM4.54176 41.1642V10.908L22.0823 26.1384L4.55063 41.3527C4.54176 41.295 4.54176 41.23 4.54176 41.1642ZM55.1225 45.4786H8.87764C8.09252 45.4786 7.35789 45.2732 6.73089 44.9122L25.2282 28.8676L26.9551 30.3629C28.4002 31.6127 30.2086 32.2458 32.0001 32.2458C33.8008 32.2458 35.6091 31.6127 37.0541 30.3629L38.7801 28.8676L57.2701 44.9122C56.6422 45.2732 55.9076 45.4786 55.1225 45.4786ZM59.4584 41.1642C59.4584 41.23 59.4584 41.295 59.4499 41.3527L41.9183 26.1472L59.4584 10.9161V41.1642Z" fill="#F69400"/>
</svg>
