<svg width="16" height="16" viewBox="0 0 16 16" fill="none" xmlns="http://www.w3.org/2000/svg">
<path d="M2.58659 15.8496C2.12825 15.8496 1.73589 15.6864 1.4095 15.36C1.08311 15.0336 0.919922 14.6413 0.919922 14.1829V2.51628C0.919922 2.05794 1.08311 1.66558 1.4095 1.33919C1.73589 1.0128 2.12825 0.849609 2.58659 0.849609H7.58659C7.8227 0.849609 8.02061 0.929469 8.18034 1.08919C8.34006 1.24891 8.41992 1.44683 8.41992 1.68294C8.41992 1.91905 8.34006 2.11697 8.18034 2.27669C8.02061 2.43641 7.8227 2.51628 7.58659 2.51628H2.58659V14.1829H14.2533V9.1829C14.2533 8.9468 14.3331 8.7489 14.4928 8.5892C14.6526 8.4295 14.8505 8.3496 15.0866 8.3496C15.3227 8.3496 15.5206 8.4295 15.6803 8.5892C15.8401 8.7489 15.9199 8.9468 15.9199 9.1829V14.1829C15.9199 14.6413 15.7567 15.0336 15.4303 15.36C15.1039 15.6864 14.7116 15.8496 14.2533 15.8496H2.58659ZM14.2533 3.68294L7.08659 10.8496C6.93381 11.0024 6.73936 11.0788 6.50325 11.0788C6.26714 11.0788 6.0727 11.0024 5.91992 10.8496C5.76714 10.6968 5.69075 10.5024 5.69075 10.2663C5.69075 10.0302 5.76714 9.8357 5.91992 9.6829L13.0866 2.51628H10.9199C10.6838 2.51628 10.4859 2.43641 10.3262 2.27669C10.1664 2.11697 10.0866 1.91905 10.0866 1.68294C10.0866 1.44683 10.1664 1.24891 10.3262 1.08919C10.4859 0.929469 10.6838 0.849609 10.9199 0.849609H15.0866C15.3227 0.849609 15.5206 0.929469 15.6803 1.08919C15.8401 1.24891 15.9199 1.44683 15.9199 1.68294V5.84961C15.9199 6.08572 15.8401 6.28364 15.6803 6.44336C15.5206 6.60308 15.3227 6.68294 15.0866 6.68294C14.8505 6.68294 14.6526 6.60308 14.4928 6.44336C14.3331 6.28364 14.2533 6.08572 14.2533 5.84961V3.68294Z" fill="#333333"/>
</svg>
