<svg width="24" height="26" viewBox="0 0 24 26" fill="none" xmlns="http://www.w3.org/2000/svg">
<g clip-path="url(#clip0_8_5734)">
<g clip-path="url(#clip1_8_5734)">
<mask id="mask0_8_5734" style="mask-type:luminance" maskUnits="userSpaceOnUse" x="0" y="1" width="24" height="25">
<path d="M24 1.11914H0V25.1191H24V1.11914Z" fill="white"/>
</mask>
<g mask="url(#mask0_8_5734)">
<path d="M12 3.28008C15.2063 3.28008 15.5859 3.29414 16.8469 3.35039C18.0188 3.40195 18.6516 3.59883 19.0734 3.76289C19.6313 3.97851 20.0344 4.24101 20.4516 4.6582C20.8734 5.08008 21.1313 5.47851 21.3469 6.03633C21.5109 6.4582 21.7078 7.0957 21.7594 8.26289C21.8156 9.52851 21.8297 9.9082 21.8297 13.1097C21.8297 16.316 21.8156 16.6957 21.7594 17.9566C21.7078 19.1285 21.5109 19.7613 21.3469 20.1832C21.1313 20.741 20.8687 21.1441 20.4516 21.5613C20.0297 21.9832 19.6313 22.241 19.0734 22.4566C18.6516 22.6207 18.0141 22.8175 16.8469 22.8691C15.5813 22.9254 15.2016 22.9394 12 22.9394C8.79375 22.9394 8.41406 22.9254 7.15313 22.8691C5.98125 22.8175 5.34844 22.6207 4.92656 22.4566C4.36875 22.241 3.96563 21.9785 3.54844 21.5613C3.12656 21.1394 2.86875 20.741 2.65313 20.1832C2.48906 19.7613 2.29219 19.1238 2.24063 17.9566C2.18438 16.691 2.17031 16.3113 2.17031 13.1097C2.17031 9.90351 2.18438 9.52383 2.24063 8.26289C2.29219 7.09101 2.48906 6.4582 2.65313 6.03633C2.86875 5.47851 3.13125 5.07539 3.54844 4.6582C3.97031 4.23633 4.36875 3.97851 4.92656 3.76289C5.34844 3.59883 5.98594 3.40195 7.15313 3.35039C8.41406 3.29414 8.79375 3.28008 12 3.28008ZM12 1.11914C8.74219 1.11914 8.33438 1.1332 7.05469 1.18945C5.77969 1.2457 4.90313 1.45195 4.14375 1.74727C3.35156 2.05664 2.68125 2.46445 2.01563 3.13476C1.34531 3.80039 0.9375 4.4707 0.628125 5.2582C0.332812 6.02226 0.126563 6.89414 0.0703125 8.16914C0.0140625 9.45351 0 9.86133 0 13.1191C0 16.3769 0.0140625 16.7847 0.0703125 18.0644C0.126563 19.3394 0.332812 20.216 0.628125 20.9754C0.9375 21.7675 1.34531 22.4379 2.01563 23.1035C2.68125 23.7691 3.35156 24.1816 4.13906 24.4863C4.90313 24.7816 5.775 24.9879 7.05 25.0441C8.32969 25.1004 8.7375 25.1144 11.9953 25.1144C15.2531 25.1144 15.6609 25.1004 16.9406 25.0441C18.2156 24.9879 19.0922 24.7816 19.8516 24.4863C20.6391 24.1816 21.3094 23.7691 21.975 23.1035C22.6406 22.4379 23.0531 21.7675 23.3578 20.98C23.6531 20.216 23.8594 19.3441 23.9156 18.0691C23.9719 16.7894 23.9859 16.3816 23.9859 13.1238C23.9859 9.86602 23.9719 9.4582 23.9156 8.17851C23.8594 6.90351 23.6531 6.02695 23.3578 5.26758C23.0625 4.4707 22.6547 3.80039 21.9844 3.13476C21.3188 2.46914 20.6484 2.05664 19.8609 1.75195C19.0969 1.45664 18.225 1.25039 16.95 1.19414C15.6656 1.1332 15.2578 1.11914 12 1.11914Z" fill="white"/>
<path d="M12 6.95508C8.59688 6.95508 5.83594 9.71601 5.83594 13.1191C5.83594 16.5222 8.59688 19.2832 12 19.2832C15.4031 19.2832 18.1641 16.5222 18.1641 13.1191C18.1641 9.71601 15.4031 6.95508 12 6.95508ZM12 17.1175C9.79219 17.1175 8.00156 15.3269 8.00156 13.1191C8.00156 10.9113 9.79219 9.1207 12 9.1207C14.2078 9.1207 15.9984 10.9113 15.9984 13.1191C15.9984 15.3269 14.2078 17.1175 12 17.1175Z" fill="white"/>
<path d="M19.8469 6.7125C19.8469 7.50938 19.2 8.15157 18.4078 8.15157C17.6109 8.15157 16.9688 7.50469 16.9688 6.7125C16.9688 5.91563 17.6156 5.27344 18.4078 5.27344C19.2 5.27344 19.8469 5.92032 19.8469 6.7125Z" fill="white"/>
</g>
</g>
</g>
<defs>
<clipPath id="clip0_8_5734">
<rect width="24" height="25" fill="white" transform="translate(0 0.769531)"/>
</clipPath>
<clipPath id="clip1_8_5734">
<rect width="24" height="25" fill="white" transform="translate(0 0.769531)"/>
</clipPath>
</defs>
</svg>
