<svg width="26" height="27" viewBox="0 0 26 27" fill="none" xmlns="http://www.w3.org/2000/svg">
<g clip-path="url(#clip0_8_5819)">
<path d="M24.3959 11.6982C24.3959 6.60806 19.2921 2.4668 13.0183 2.4668C6.74502 2.4668 1.64062 6.60806 1.64062 11.6982C1.64062 16.2615 5.68829 20.0833 11.156 20.8057C11.5264 20.8858 12.0308 21.0501 12.1583 21.3667C12.273 21.6542 12.2333 22.1048 12.1952 22.3952C12.1952 22.3952 12.0616 23.198 12.0326 23.3691C11.983 23.6565 11.804 24.4939 13.0183 23.9824C14.2326 23.4708 19.5705 20.1248 21.9576 17.3781C23.6064 15.57 24.3959 13.7353 24.3959 11.6982Z" fill="white"/>
<path d="M20.5935 14.6332H17.4012H17.3969C17.2769 14.6332 17.1797 14.5361 17.1797 14.416V14.4126V9.45658V9.45158C17.1797 9.33163 17.2769 9.23438 17.3969 9.23438H17.4012H20.5935C20.7129 9.23438 20.8107 9.33205 20.8107 9.45158V10.2583C20.8107 10.3782 20.7134 10.4754 20.5935 10.4754H18.4211V11.3132H20.5935C20.7129 11.3132 20.8107 11.411 20.8107 11.5304V12.3372C20.8107 12.4571 20.7134 12.5544 20.5935 12.5544H18.4211V13.3921H20.5935C20.7129 13.3921 20.8107 13.4898 20.8107 13.6092V14.416C20.8107 14.5361 20.7134 14.6332 20.5935 14.6332Z" fill="#05C755"/>
<path d="M8.79659 14.6332C8.91656 14.6332 9.01382 14.5361 9.01382 14.416V13.6092C9.01382 13.4898 8.91603 13.3921 8.79659 13.3921H6.62415V9.45158C6.62415 9.33205 6.52646 9.23438 6.40702 9.23438H5.60005C5.48007 9.23438 5.38281 9.33163 5.38281 9.45158V14.4123V14.416C5.38281 14.5361 5.48007 14.6332 5.60005 14.6332H5.60431H8.79659Z" fill="#05C755"/>
<path d="M10.7272 9.23438H9.92046C9.80049 9.23438 9.70312 9.33172 9.70312 9.45157V14.4161C9.70312 14.5361 9.80049 14.6333 9.92046 14.6333H10.7272C10.8473 14.6333 10.9445 14.5361 10.9445 14.4161V9.45157C10.9445 9.33172 10.8473 9.23438 10.7272 9.23438Z" fill="#05C755"/>
<path d="M16.1874 9.23438H15.3806C15.2606 9.23438 15.1633 9.33172 15.1633 9.45157V12.4002L12.8915 9.33279C12.8862 9.3249 12.8802 9.31744 12.874 9.3104L12.8726 9.30879C12.8685 9.3041 12.8641 9.29952 12.8595 9.29526L12.8555 9.29152C12.8516 9.2881 12.8478 9.28481 12.8437 9.2815L12.8378 9.27713C12.8341 9.27447 12.8303 9.27191 12.8262 9.26924C12.8241 9.26786 12.8219 9.26658 12.8196 9.2653C12.8157 9.26295 12.8117 9.26071 12.8077 9.25869C12.8053 9.25751 12.8031 9.25634 12.8008 9.25527C12.7966 9.25336 12.7923 9.25154 12.7881 9.24984C12.7857 9.24898 12.7834 9.24813 12.781 9.24728C12.7767 9.24568 12.7723 9.24429 12.7678 9.24301C12.7652 9.24227 12.7627 9.24162 12.76 9.24098C12.7558 9.24002 12.7515 9.23906 12.7471 9.2382C12.7441 9.23767 12.741 9.23726 12.7379 9.23672C12.734 9.2363 12.7302 9.23576 12.7262 9.23544C12.7224 9.23502 12.7185 9.23491 12.7147 9.2348C12.7121 9.2347 12.7097 9.23438 12.7071 9.23438H11.9047C11.7848 9.23438 11.6875 9.33172 11.6875 9.45157V14.4161C11.6875 14.5361 11.7848 14.6333 11.9047 14.6333H12.7116C12.8316 14.6333 12.9288 14.5361 12.9288 14.4161V11.4684L15.2035 14.5397C15.2192 14.5619 15.2384 14.58 15.2596 14.5944L15.2621 14.5961C15.2665 14.5991 15.2712 14.6019 15.2757 14.6044C15.2779 14.6056 15.2799 14.6069 15.2821 14.6078C15.2856 14.6098 15.289 14.6115 15.2926 14.613C15.2962 14.6147 15.2996 14.6162 15.3033 14.6176C15.3055 14.6185 15.3078 14.6194 15.3101 14.6201C15.315 14.6218 15.32 14.6235 15.3251 14.6249L15.3282 14.6257C15.3463 14.6305 15.3653 14.6333 15.3851 14.6333H16.1874C16.3074 14.6333 16.4047 14.5361 16.4047 14.4161V9.45157C16.4047 9.33172 16.3074 9.23438 16.1874 9.23438Z" fill="#05C755"/>
</g>
<defs>
<clipPath id="clip0_8_5819">
<rect width="26" height="26" fill="white" transform="translate(0 0.300781)"/>
</clipPath>
</defs>
</svg>
