<svg width="131" height="56" viewBox="0 0 131 56" fill="none" xmlns="http://www.w3.org/2000/svg">
<path d="M20.0179 4.3311V22H17.6944V8.82492L11.8218 22H10.1877L4.28956 8.79939V22H1.96605V4.3311H4.46829L11.0048 18.936L17.5412 4.3311H20.0179ZM23.7188 14.9529C23.7188 13.523 24.0082 12.2719 24.5869 11.1995C25.1657 10.1101 25.9572 9.2675 26.9615 8.67173C27.9828 8.07595 29.1148 7.77807 30.3574 7.77807C31.583 7.77807 32.6469 8.04191 33.549 8.56959C34.4512 9.09728 35.1236 9.76114 35.5662 10.5612V8.00786H37.9152V22H35.5662V19.3956C35.1066 20.2127 34.4172 20.8936 33.498 21.4383C32.5958 21.966 31.5404 22.2298 30.3319 22.2298C29.0893 22.2298 27.9658 21.9234 26.9615 21.3106C25.9572 20.6978 25.1657 19.8382 24.5869 18.7318C24.0082 17.6253 23.7188 16.3657 23.7188 14.9529ZM35.5662 14.9784C35.5662 13.923 35.3534 13.0038 34.9278 12.2208C34.5023 11.4378 33.9235 10.842 33.1916 10.4335C32.4767 10.008 31.6851 9.79518 30.817 9.79518C29.9489 9.79518 29.1574 9.99945 28.4424 10.408C27.7275 10.8165 27.1573 11.4123 26.7317 12.1953C26.3062 12.9783 26.0934 13.8975 26.0934 14.9529C26.0934 16.0253 26.3062 16.9615 26.7317 17.7615C27.1573 18.5445 27.7275 19.1488 28.4424 19.5744C29.1574 19.9829 29.9489 20.1872 30.817 20.1872C31.6851 20.1872 32.4767 19.9829 33.1916 19.5744C33.9235 19.1488 34.5023 18.5445 34.9278 17.7615C35.3534 16.9615 35.5662 16.0338 35.5662 14.9784ZM49.2876 7.75253C50.9898 7.75253 52.3685 8.27171 53.4239 9.31005C54.4793 10.3314 55.007 11.8123 55.007 13.7528V22H52.709V14.0847C52.709 12.6889 52.36 11.6251 51.6621 10.8931C50.9642 10.1441 50.011 9.76965 48.8024 9.76965C47.5768 9.76965 46.5981 10.1526 45.8661 10.9186C45.1512 11.6846 44.7937 12.7996 44.7937 14.2635V22H42.4702V8.00786H44.7937V9.99945C45.2533 9.28452 45.8746 8.7313 46.6576 8.33979C47.4577 7.94829 48.3343 7.75253 49.2876 7.75253ZM58.5628 14.9529C58.5628 13.523 58.8522 12.2719 59.4309 11.1995C60.0097 10.1101 60.8012 9.2675 61.8055 8.67173C62.8268 8.07595 63.9588 7.77807 65.2014 7.77807C66.427 7.77807 67.4909 8.04191 68.393 8.56959C69.2952 9.09728 69.9676 9.76114 70.4102 10.5612V8.00786H72.7592V22H70.4102V19.3956C69.9506 20.2127 69.2612 20.8936 68.342 21.4383C67.4398 21.966 66.3844 22.2298 65.1759 22.2298C63.9333 22.2298 62.8098 21.9234 61.8055 21.3106C60.8012 20.6978 60.0097 19.8382 59.4309 18.7318C58.8522 17.6253 58.5628 16.3657 58.5628 14.9529ZM70.4102 14.9784C70.4102 13.923 70.1974 13.0038 69.7718 12.2208C69.3463 11.4378 68.7675 10.842 68.0356 10.4335C67.3207 10.008 66.5291 9.79518 65.661 9.79518C64.7929 9.79518 64.0014 9.99945 63.2864 10.408C62.5715 10.8165 62.0013 11.4123 61.5757 12.1953C61.1502 12.9783 60.9374 13.8975 60.9374 14.9529C60.9374 16.0253 61.1502 16.9615 61.5757 17.7615C62.0013 18.5445 62.5715 19.1488 63.2864 19.5744C64.0014 19.9829 64.7929 20.1872 65.661 20.1872C66.5291 20.1872 67.3207 19.9829 68.0356 19.5744C68.7675 19.1488 69.3463 18.5445 69.7718 17.7615C70.1974 16.9615 70.4102 16.0338 70.4102 14.9784ZM80.1484 9.92285V18.17C80.1484 18.8509 80.2931 19.336 80.5825 19.6254C80.8718 19.8978 81.374 20.034 82.0889 20.034H83.7996V22H81.7059C80.4122 22 79.442 21.7021 78.7951 21.1063C78.1483 20.5106 77.8249 19.5318 77.8249 18.17V9.92285H76.012V8.00786H77.8249V4.4843H80.1484V8.00786H83.7996V9.92285H80.1484ZM93.3458 22.2298C92.0351 22.2298 90.8435 21.9319 89.7711 21.3361C88.7158 20.7404 87.8817 19.8978 87.2689 18.8084C86.6731 17.7019 86.3752 16.4253 86.3752 14.9784C86.3752 13.5485 86.6816 12.2889 87.2944 11.1995C87.9242 10.0931 88.7753 9.25048 89.8477 8.67173C90.9201 8.07595 92.1202 7.77807 93.4479 7.77807C94.7756 7.77807 95.9757 8.07595 97.0481 8.67173C98.1205 9.25048 98.963 10.0846 99.5758 11.174C100.206 12.2634 100.521 13.5315 100.521 14.9784C100.521 16.4253 100.197 17.7019 99.5503 18.8084C98.9205 19.8978 98.0609 20.7404 96.9715 21.3361C95.8821 21.9319 94.6735 22.2298 93.3458 22.2298ZM93.3458 20.1872C94.1798 20.1872 94.9629 19.9914 95.6948 19.5999C96.4268 19.2084 97.014 18.6211 97.4566 17.8381C97.9162 17.0551 98.146 16.1019 98.146 14.9784C98.146 13.8549 97.9247 12.9017 97.4821 12.1187C97.0396 11.3357 96.4608 10.7569 95.7459 10.3824C95.0309 9.99094 94.2564 9.79518 93.4224 9.79518C92.5713 9.79518 91.7882 9.99094 91.0733 10.3824C90.3754 10.7569 89.8137 11.3357 89.3881 12.1187C88.9626 12.9017 88.7498 13.8549 88.7498 14.9784C88.7498 16.1189 88.9541 17.0806 89.3626 17.8636C89.7882 18.6467 90.3499 19.2339 91.0478 19.6254C91.7457 19.9999 92.5117 20.1872 93.3458 20.1872Z" fill="#333333"/>
<path d="M58.5741 33.6644C60.5146 33.6644 62.1913 34.0303 63.6041 34.7623C65.034 35.4772 66.1234 36.5071 66.8724 37.8518C67.6384 39.1965 68.0214 40.7796 68.0214 42.601C68.0214 44.4223 67.6384 46.0054 66.8724 47.3501C66.1234 48.6778 65.034 49.6992 63.6041 50.4141C62.1913 51.112 60.5146 51.4609 58.5741 51.4609H53.0334V33.6644H58.5741ZM58.5741 49.546C60.8721 49.546 62.6254 48.9417 63.8339 47.7331C65.0425 46.5075 65.6468 44.7968 65.6468 42.601C65.6468 40.3881 65.034 38.6603 63.8084 37.4177C62.5998 36.1751 60.8551 35.5538 58.5741 35.5538H55.3569V49.546H58.5741ZM84.4812 43.9287C84.4812 44.3712 84.4556 44.8394 84.4046 45.333H73.2211C73.3062 46.7118 73.7743 47.7927 74.6254 48.5757C75.4935 49.3417 76.5404 49.7247 77.766 49.7247C78.7703 49.7247 79.6044 49.4949 80.2682 49.0353C80.9491 48.5587 81.4257 47.9289 81.6981 47.1458H84.2003C83.8258 48.4906 83.0769 49.5885 81.9534 50.4396C80.8299 51.2737 79.4341 51.6907 77.766 51.6907C76.4383 51.6907 75.2467 51.3928 74.1913 50.7971C73.153 50.2013 72.3359 49.3587 71.7402 48.2693C71.1444 47.1629 70.8465 45.8862 70.8465 44.4393C70.8465 42.9925 71.1359 41.7243 71.7146 40.6349C72.2934 39.5455 73.1019 38.7114 74.1403 38.1327C75.1956 37.5369 76.4042 37.239 77.766 37.239C79.0937 37.239 80.2682 37.5284 81.2895 38.1071C82.3109 38.6859 83.0939 39.4859 83.6386 40.5072C84.2003 41.5115 84.4812 42.652 84.4812 43.9287ZM82.0811 43.4435C82.0811 42.5584 81.8853 41.8009 81.4938 41.1711C81.1023 40.5243 80.5661 40.0391 79.8852 39.7157C79.2214 39.3753 78.4809 39.2051 77.6638 39.2051C76.4893 39.2051 75.485 39.5795 74.6509 40.3285C73.8339 41.0775 73.3658 42.1158 73.2466 43.4435H82.0811ZM105.003 37.2135C106.092 37.2135 107.063 37.4433 107.914 37.9029C108.765 38.3454 109.437 39.0178 109.931 39.92C110.424 40.8221 110.671 41.9201 110.671 43.2137V51.4609H108.373V43.5457C108.373 42.1499 108.024 41.086 107.326 40.354C106.646 39.6051 105.718 39.2306 104.543 39.2306C103.335 39.2306 102.373 39.6221 101.658 40.4051C100.943 41.1711 100.586 42.286 100.586 43.7499V51.4609H98.2878V43.5457C98.2878 42.1499 97.9388 41.086 97.2409 40.354C96.56 39.6051 95.6323 39.2306 94.4578 39.2306C93.2492 39.2306 92.2875 39.6221 91.5726 40.4051C90.8576 41.1711 90.5002 42.286 90.5002 43.7499V51.4609H88.1767V37.4688H90.5002V39.4859C90.9598 38.754 91.5726 38.1922 92.3385 37.8007C93.1216 37.4092 93.9812 37.2135 94.9174 37.2135C96.0919 37.2135 97.1303 37.4773 98.0324 38.005C98.9346 38.5327 99.607 39.3072 100.05 40.3285C100.441 39.3412 101.088 38.5752 101.99 38.0305C102.892 37.4858 103.897 37.2135 105.003 37.2135ZM121.214 51.6907C119.903 51.6907 118.711 51.3928 117.639 50.7971C116.584 50.2013 115.75 49.3587 115.137 48.2693C114.541 47.1629 114.243 45.8862 114.243 44.4393C114.243 43.0095 114.549 41.7499 115.162 40.6604C115.792 39.554 116.643 38.7114 117.716 38.1327C118.788 37.5369 119.988 37.239 121.316 37.239C122.643 37.239 123.844 37.5369 124.916 38.1327C125.988 38.7114 126.831 39.5455 127.444 40.6349C128.074 41.7243 128.388 42.9925 128.388 44.4393C128.388 45.8862 128.065 47.1629 127.418 48.2693C126.788 49.3587 125.929 50.2013 124.839 50.7971C123.75 51.3928 122.541 51.6907 121.214 51.6907ZM121.214 49.6481C122.048 49.6481 122.831 49.4523 123.563 49.0608C124.295 48.6693 124.882 48.0821 125.324 47.299C125.784 46.516 126.014 45.5628 126.014 44.4393C126.014 43.3159 125.793 42.3626 125.35 41.5796C124.907 40.7966 124.329 40.2179 123.614 39.8434C122.899 39.4519 122.124 39.2561 121.29 39.2561C120.439 39.2561 119.656 39.4519 118.941 39.8434C118.243 40.2179 117.682 40.7966 117.256 41.5796C116.83 42.3626 116.618 43.3159 116.618 44.4393C116.618 45.5798 116.822 46.5416 117.23 47.3246C117.656 48.1076 118.218 48.6949 118.916 49.0864C119.614 49.4608 120.38 49.6481 121.214 49.6481Z" fill="#333333"/>
</svg>
