<svg width="55" height="79" viewBox="0 0 55 79" fill="none" xmlns="http://www.w3.org/2000/svg">
<path d="M42.3301 23.2402L42.1455 23.0557C42.1197 23.0295 42.0807 22.9895 42.0293 22.9365C41.926 22.8299 41.7719 22.6689 41.5703 22.4541C41.1669 22.0241 40.5735 21.3773 39.8174 20.5137C38.3048 18.7858 36.1403 16.1903 33.543 12.7266L33.1973 12.2656L32.79 12.6729C27.2027 18.2611 22.2846 20.6015 18.793 21.5537C17.0455 22.0302 15.6493 22.1609 14.6982 22.1738C14.2226 22.1803 13.8572 22.1575 13.6152 22.1338C13.4947 22.1219 13.4048 22.1093 13.3467 22.1006L13.2705 22.0889C13.2694 22.0887 13.2687 22.0879 13.2686 22.0879H13.2695L12.6719 21.9688V32.5781C9.77829 29.181 8.02743 24.7857 8.02734 19.9756C8.02734 9.21906 16.7461 0.500006 27.499 0.5C38.2555 0.5 46.9746 9.21912 46.9746 19.9756C46.9745 24.7852 45.2214 29.181 42.3301 32.5781V23.2402Z" stroke="#F69400"/>
<path d="M27.499 72.7207C27.0441 72.9279 27.044 72.9279 27.0439 72.9277V72.9268C27.0436 72.926 27.0426 72.9252 27.042 72.9238C27.0405 72.9207 27.038 72.9155 27.0352 72.9092C27.0294 72.8966 27.021 72.8773 27.0098 72.8525C26.9871 72.8028 26.9531 72.729 26.9092 72.6328C26.8211 72.4399 26.6916 72.1564 26.5264 71.7959C26.1959 71.0748 25.7221 70.0441 25.1494 68.8047C24.0037 66.3251 22.4616 63.011 20.876 59.6738C19.2899 56.3358 17.6618 52.9776 16.3438 50.4082C15.6844 49.1228 15.1058 48.0404 14.6504 47.2588C14.4222 46.8672 14.2293 46.5589 14.0762 46.3408C14.0393 46.2883 14.0055 46.2431 13.9756 46.2041C7.55991 48.5963 4.22412 52.3932 2.46289 57.6416C0.690693 62.923 0.508459 69.683 0.501953 78.0371H54.498C54.4915 69.683 54.3095 62.923 52.5371 57.6416C50.7756 52.3929 47.4388 48.5963 41.0215 46.2041C40.9917 46.243 40.9585 46.2886 40.9219 46.3408C40.7689 46.5589 40.5767 46.8673 40.3486 47.2588C39.8933 48.0405 39.3146 49.1228 38.6553 50.4082C37.3373 52.9776 35.7092 56.3358 34.123 59.6738C32.5373 63.011 30.9945 66.3251 29.8486 68.8047C29.2758 70.0443 28.8022 71.0758 28.4717 71.7969C28.3065 72.1572 28.1769 72.44 28.0889 72.6328C28.0449 72.7291 28.011 72.8028 27.9883 72.8525C27.977 72.8774 27.9686 72.8966 27.9629 72.9092C27.96 72.9155 27.9575 72.9207 27.9561 72.9238C27.9555 72.925 27.9554 72.9261 27.9551 72.9268L27.9541 72.9277C27.9508 72.9264 27.9137 72.9096 27.499 72.7207ZM27.499 72.7207L27.9541 72.9287L27.499 73.9277L27.0439 72.9287L27.499 72.7207Z" stroke="#F69400"/>
<path d="M21.52 44.4473V52.4201L27.4989 50.3869L33.4794 52.4201V44.4473L27.4989 46.4807L21.52 44.4473Z" fill="#F69400"/>
</svg>
