<svg width="55" height="64" viewBox="0 0 55 64" fill="none" xmlns="http://www.w3.org/2000/svg">
<path d="M10.249 48.4564H31.474C31.7794 47.5662 32.1662 46.7128 32.6425 45.9121H10.2491L10.249 48.4564Z" fill="#F69400"/>
<path d="M36.847 35.6035H10.2471V38.1452H36.847V35.6035Z" fill="#F69400"/>
<path d="M36.847 25.2969H10.2471V27.8393H36.847V25.2969Z" fill="#F69400"/>
<path d="M36.8471 14.9902H24.3096V17.5318H36.8471V14.9902Z" fill="#F69400"/>
<path d="M5.42128 56.5826C4.10873 56.5826 3.04783 55.522 3.04783 54.2095V20.4975H17.5575C19.1575 20.4975 20.4612 19.1938 20.4612 17.5847V3.0482H41.6774C42.9807 3.0482 44.0503 4.10861 44.0503 5.42116V39.0347C44.2571 39.0163 44.455 39.0163 44.6618 39.0163C45.498 39.0163 46.307 39.0884 47.098 39.2324V5.42116C47.098 2.42746 44.6618 0 41.6774 0H19.679C18.097 0 16.5773 0.620741 15.4628 1.74455L1.74406 15.4626C0.620246 16.5777 0 18.0974 0 19.6794V54.2095C0 57.2032 2.42746 59.6298 5.42116 59.6298H32.4355C31.914 58.6772 31.5005 57.6527 31.2129 56.5826H5.42128ZM17.755 3.76721V15.9569C17.755 17.2704 17.2428 17.7822 15.9211 17.7822H3.73124L17.755 3.76721Z" fill="#F69400"/>
<path d="M44.6616 42.6094C38.9521 42.6094 34.3232 47.2379 34.3232 52.9478C34.3232 58.6578 38.952 63.286 44.6616 63.286C50.3712 63.286 54.9999 58.6577 54.9999 52.9478C55 47.2377 50.3712 42.6094 44.6616 42.6094ZM51.3408 49.5748L45.8213 56.268C45.472 56.7087 44.9557 56.9852 44.3956 57.0326C43.8351 57.08 43.2799 56.8939 42.8616 56.5172L39.5079 53.5034C39.2555 53.2768 39.1041 52.96 39.087 52.6211C39.0694 52.2831 39.1879 51.9513 39.4154 51.7002L39.8665 51.2025C40.0948 50.9513 40.4135 50.8012 40.7528 50.7854C41.0921 50.7705 41.4234 50.8907 41.6732 51.1209L44.4742 53.6975L50.1574 48.4477C50.4771 48.1676 50.9564 48.1764 51.2637 48.4713C51.5712 48.7635 51.6042 49.2438 51.3408 49.5748Z" fill="#F69400"/>
</svg>
