<svg width="55" height="56" viewBox="0 0 55 56" fill="none" xmlns="http://www.w3.org/2000/svg">
<path d="M53.5806 8.88573C52.622 6.70608 51.1573 4.75377 49.194 3.19407L48.3415 4.26567L49.1935 3.19407C46.4394 1.00001 43.2754 -0.00294048 40.2133 6.47466e-06C37.0341 0.000879646 33.9628 1.06211 31.4631 2.92186C29.8641 4.11199 28.5012 5.63829 27.4992 7.42546C26.4973 5.63829 25.1343 4.11199 23.5353 2.92186C21.0361 1.06211 17.9649 0.000879646 14.7862 6.47466e-06C11.7235 -0.00294048 8.56003 1.00001 5.80594 3.19407C3.84217 4.75377 2.37787 6.70618 1.4189 8.88573C0.45907 11.0664 -0.000436275 13.4694 3.10807e-07 15.9606C0.00436617 21.3103 2.09845 27.0719 6.01659 32.1582C9.45078 36.61 13.782 40.9083 17.5835 44.81C19.4837 46.7594 21.2508 48.6076 22.6973 50.304C24.1448 51.9974 25.2671 53.5487 25.8828 54.8237L25.8809 54.8199C26.0978 55.2688 26.4398 55.5276 26.6919 55.6623C26.8218 55.732 26.9364 55.7759 27.0391 55.8084L27.1929 55.8485L27.286 55.8658C27.3304 55.8715 27.359 55.8802 27.4995 55.883C27.6346 55.881 27.6651 55.8715 27.7096 55.8667C27.841 55.8457 27.9112 55.8247 28.0176 55.7894C28.1677 55.7369 28.3485 55.6575 28.5491 55.5085C28.7473 55.3624 28.9675 55.135 29.1179 54.8237C29.7335 53.5486 30.8553 51.9965 32.3023 50.304C34.4725 47.7586 37.3614 44.8759 40.3438 41.8136C43.3272 38.7477 46.4066 35.4981 48.9831 32.158C52.9011 27.0718 54.9957 21.3113 55 15.9615C54.9999 13.4704 54.5405 11.0664 53.5806 8.88573ZM46.8138 30.4865C43.5396 34.7349 39.2762 38.9787 35.4543 42.8986C33.5425 44.8605 31.7407 46.7421 30.2185 48.5263C29.1536 49.7776 28.2352 50.9735 27.4997 52.1396C26.7642 50.9735 25.8459 49.7776 24.7809 48.5263C22.4976 45.8519 19.583 42.9501 16.6178 39.9032C13.6534 36.8582 10.6404 33.6718 8.18566 30.4864C4.58612 25.8223 2.73401 20.5872 2.73838 15.9604C2.73838 13.8046 3.13523 11.7836 3.92567 9.98876C4.71698 8.19418 5.89708 6.62192 7.51026 5.33727C9.78978 3.52828 12.3114 2.7422 14.7862 2.73926C17.3508 2.73838 19.8642 3.60184 21.9001 5.11865C23.9366 6.63633 25.4877 8.78924 26.1758 11.3758C26.3354 11.9757 26.8788 12.3939 27.4992 12.3939C28.1195 12.3939 28.6631 11.9756 28.8225 11.3758C29.5107 8.78924 31.0618 6.63633 33.0988 5.11865C35.1347 3.60184 37.6482 2.73849 40.2133 2.73936C42.6881 2.74231 45.2097 3.52838 47.4891 5.33738C49.1025 6.62203 50.2825 8.19429 51.0743 9.98986C51.8642 11.7837 52.2615 13.8047 52.2615 15.9615C52.2658 20.5873 50.4138 25.8224 46.8138 30.4865Z" fill="#F69400"/>
</svg>
