<svg width="28" height="27" viewBox="0 0 28 27" fill="none" xmlns="http://www.w3.org/2000/svg">
<g clip-path="url(#clip0_8_4993)">
<g clip-path="url(#clip1_8_4993)">
<g clip-path="url(#clip2_8_4993)">
<path fill-rule="evenodd" clip-rule="evenodd" d="M15.2599 19.6553C15.1218 19.8242 15.1135 20.2161 15.186 20.4534C15.2324 20.6048 15.5462 20.7553 15.7291 20.7404C16.1617 20.7067 16.6076 20.6335 17.0118 20.4703C18.2942 19.9555 19.2956 18.8996 20.1802 17.0859C18.062 17.224 16.5142 18.1241 15.2599 19.6553ZM5.36383 17.1844C6.93101 16.6683 8.19553 15.769 8.67664 13.9392C8.73768 13.7065 8.7969 13.4721 8.87782 13.2485C9.01831 12.8611 9.31973 12.7128 9.67379 12.7171C10.0322 12.7209 10.4323 13.1535 10.4206 13.555C10.4103 13.9107 10.3708 14.2873 10.2513 14.6149C9.3289 17.1446 7.56987 18.5484 5.12742 18.9748C4.69438 19.051 4.24115 18.9944 3.82357 18.9987C3.34891 19.5234 3.50759 20.0413 3.72901 20.533C3.96373 21.054 4.36647 21.4254 4.91304 21.3856C5.62808 21.334 6.36194 21.2591 7.04074 21.0294C7.72268 20.7985 8.39412 20.4419 8.98863 20.0082C11.7507 17.9933 14.1039 15.527 15.8053 12.3932C16.4256 11.2498 16.9679 10.0572 17.1648 8.76853C16.9237 8.30324 16.552 8.38598 16.2628 8.46571C15.2954 8.73395 14.2888 8.93807 13.3942 9.39118C11.0649 10.5715 8.86606 12.0152 6.95106 13.8981C6.17129 14.6656 5.487 15.5505 4.77808 16.4022C4.6448 16.5625 4.60532 16.8159 4.47404 17.1487C4.84892 17.169 5.13048 17.2611 5.36383 17.1844ZM2.78245 16.3773C5.34913 12.5298 8.91317 10.0568 12.7334 7.96892C13.6665 7.45904 14.7304 7.22615 15.7441 6.90069C16.2147 6.74967 16.7089 6.68233 17.2365 6.56788C17.4149 5.60296 17.3194 4.69788 17.1284 3.82982C16.8752 2.67854 15.915 1.91805 14.7887 1.86802C14.3441 1.84828 13.8877 1.8524 13.453 1.94253C8.47798 2.96956 4.74304 5.84871 2.39073 10.7539C1.81432 11.9545 1.46285 13.2312 1.60454 14.6021C1.68487 15.3768 1.82351 16.1575 2.58828 16.5042C2.68804 16.441 2.75246 16.4228 2.78245 16.3773ZM1.62366 18.0999C0.160684 16.9029 -0.12622 15.2546 0.0434744 13.3991C0.168335 12.0426 0.600602 10.8099 1.19721 9.63261C2.71405 6.63552 4.89406 4.33324 7.56161 2.55199C9.44566 1.29283 11.5233 0.576101 13.6831 0.193256C16.6574 -0.332812 18.6786 1.48838 18.8699 4.75373C18.9078 5.41277 18.9356 6.07196 18.9672 6.69809C19.198 6.81913 19.3395 6.91583 19.4945 6.97123C21.2652 7.60058 22.1744 9.02788 22.6208 10.9021C22.9471 12.275 23.0244 13.6463 22.6956 15.0336C22.5519 15.6418 22.5628 16.1921 22.9891 16.7237C23.5953 17.4793 23.7733 18.4436 23.8969 19.4137C23.9405 19.7557 24.0076 20.0941 24.0643 20.4346C24.3622 20.5177 24.5745 20.5818 24.7887 20.6364C26.4972 21.0681 27.4175 22.3394 27.908 24.0727C28.1049 24.7689 27.9889 25.3963 27.5304 25.9227C27.2817 26.2094 26.9177 26.3095 26.6105 26.1277C26.3961 26.0023 26.2009 25.7144 26.1304 25.456C26.0569 25.1823 26.1796 24.8542 26.1498 24.5574C26.0495 23.569 25.5435 22.8786 24.7093 22.5C23.9268 22.1441 23.1958 22.1802 22.5618 22.9121C22.1319 23.4082 21.5734 23.6954 20.9618 23.8531C20.2873 24.0268 19.767 23.8262 19.5144 23.2948C19.285 22.8134 19.4746 22.1669 20.0668 21.7477C20.5293 21.4205 21.051 21.1856 21.5637 20.9512C22.0441 20.7315 22.2237 20.3315 22.2488 19.8118C22.2759 19.2558 22.2366 19.1548 21.6579 18.1697C21.3304 18.6027 21.019 19.0143 20.7084 19.4253C19.9935 20.3714 19.1813 21.2006 18.181 21.7808C17.2817 22.3029 16.3277 22.6572 15.2916 22.5426C13.6063 22.356 12.75 20.432 13.6718 18.8917C13.9105 18.4922 14.2323 18.1268 14.5786 17.8329C16.2856 16.3871 18.1538 15.3577 20.3841 15.3213C20.5968 15.3179 20.8086 15.2349 20.993 15.195C21.5255 13.3321 21.4017 11.4698 20.6158 10.0663C20.3904 9.6632 20.0766 9.28989 19.7314 9.0045C19.5075 8.81963 19.1547 8.81739 18.8882 8.74088C18.7734 8.96026 18.6983 9.05791 18.6664 9.17019C17.1273 14.5857 13.7409 18.4464 9.64425 21.6842C8.35268 22.705 6.84349 23.1985 5.24524 23.2505C3.32658 23.3131 1.9502 21.904 1.8463 19.8259C1.82212 19.3465 1.83636 18.8645 1.83284 18.4027C1.75572 18.2884 1.70783 18.168 1.62366 18.0999Z" fill="#4B4948" fill-opacity="0.6"/>
</g>
</g>
</g>
<defs>
<clipPath id="clip0_8_4993">
<rect width="28" height="26.59" fill="white" transform="translate(0 0.109375)"/>
</clipPath>
<clipPath id="clip1_8_4993">
<rect width="28" height="26.59" fill="white" transform="translate(0 0.109375)"/>
</clipPath>
<clipPath id="clip2_8_4993">
<rect width="28" height="26.6" fill="white" transform="translate(0 0.103516)"/>
</clipPath>
</defs>
</svg>
