<svg width="40" height="39" viewBox="0 0 40 39" fill="none" xmlns="http://www.w3.org/2000/svg">
<g clip-path="url(#clip0_8_4025)">
<g clip-path="url(#clip1_8_4025)">
<g clip-path="url(#clip2_8_4025)">
<path fill-rule="evenodd" clip-rule="evenodd" d="M21.7999 28.5209C21.6025 28.7622 21.5907 29.3221 21.6943 29.6611C21.7606 29.8773 22.2089 30.0924 22.4701 30.071C23.0881 30.0229 23.7251 29.9184 24.3026 29.6852C26.1346 28.9498 27.5651 27.4413 28.8288 24.8503C25.8028 25.0477 23.5917 26.3335 21.7999 28.5209ZM7.66261 24.9911C9.90144 24.2538 11.7079 22.9691 12.3952 20.3551C12.4824 20.0227 12.567 19.6878 12.6826 19.3684C12.8833 18.8149 13.3139 18.6031 13.8197 18.6092C14.3317 18.6147 14.9033 19.2327 14.8865 19.8062C14.8718 20.3143 14.8154 20.8524 14.6447 21.3204C13.327 24.9342 10.8141 26.9396 7.32488 27.5488C6.70626 27.6577 6.05878 27.5768 5.46224 27.5829C4.78416 28.3325 5.01084 29.0724 5.32715 29.7748C5.66247 30.5191 6.23782 31.0496 7.01863 30.9928C8.04012 30.9191 9.08849 30.812 10.0582 30.4839C11.0324 30.154 11.9916 29.6447 12.8409 29.025C16.7867 26.1466 20.1484 22.6233 22.579 18.1465C23.4652 16.5131 24.2399 14.8094 24.5212 12.9684C24.1767 12.3037 23.6457 12.4219 23.2326 12.5358C21.8506 12.919 20.4125 13.2106 19.1346 13.8579C15.807 15.5441 12.6658 17.6065 9.93008 20.2963C8.81613 21.3928 7.83857 22.6569 6.82583 23.8736C6.63543 24.1027 6.57903 24.4647 6.39148 24.9401C6.92703 24.969 7.32925 25.1006 7.66261 24.9911ZM3.97493 23.838C7.64162 18.3417 12.7331 14.8088 18.1905 11.8261C19.5235 11.0977 21.0434 10.765 22.4915 10.3001C23.1639 10.0843 23.8698 9.98816 24.6235 9.82466C24.8784 8.4462 24.742 7.15323 24.4692 5.91314C24.1074 4.26845 22.7357 3.18204 21.1267 3.11056C20.4916 3.08236 19.8396 3.08825 19.2186 3.21701C12.1114 4.6842 6.77577 8.79726 3.41533 15.8047C2.59189 17.5198 2.08978 19.3437 2.2922 21.3021C2.40696 22.4088 2.60501 23.5241 3.69754 24.0194C3.84006 23.9291 3.93209 23.9031 3.97493 23.838ZM2.31952 26.2989C0.229549 24.5889 -0.180314 22.2342 0.0621063 19.5835C0.240479 17.6457 0.858003 15.8847 1.7103 14.2028C3.87722 9.92128 6.99152 6.63231 10.8023 4.08766C13.4938 2.28886 16.4619 1.26497 19.5473 0.718044C23.7963 -0.0334815 26.6837 2.56823 26.957 7.23301C27.0112 8.17449 27.0508 9.11619 27.096 10.0107C27.4257 10.1836 27.6278 10.3217 27.8493 10.4009C30.3789 11.2999 31.6777 13.3389 32.3154 16.0163C32.7816 17.9777 32.892 19.9367 32.4223 21.9185C32.217 22.7874 32.2325 23.5735 32.8415 24.3329C33.7076 25.4123 33.9618 26.7899 34.1384 28.1758C34.2007 28.6643 34.2965 29.1478 34.3776 29.6342C34.8032 29.7529 35.1064 29.8445 35.4124 29.9225C37.8532 30.5392 39.1678 32.3553 39.8686 34.8315C40.1498 35.8261 39.9841 36.7223 39.3292 37.4743C38.9739 37.8839 38.4539 38.0269 38.015 37.7672C37.7087 37.588 37.4298 37.1768 37.3292 36.8076C37.2241 36.4167 37.3994 35.9479 37.3568 35.524C37.2136 34.1119 36.4907 33.1256 35.299 32.5848C34.1811 32.0763 33.1368 32.1279 32.2312 33.1735C31.617 33.8822 30.8191 34.2925 29.9454 34.5178C28.9818 34.7659 28.2386 34.4793 27.8777 33.7202C27.55 33.0325 27.8209 32.1089 28.6668 31.51C29.3276 31.0426 30.0728 30.7071 30.8053 30.3722C31.4915 30.0583 31.7481 29.4869 31.784 28.7445C31.8227 27.9502 31.7665 27.8059 30.9398 26.3986C30.472 27.0172 30.0271 27.6052 29.5834 28.1924C28.5621 29.5439 27.4018 30.7285 25.9729 31.5574C24.6882 32.3032 23.3253 32.8093 21.8452 32.6456C19.4376 32.3791 18.2143 29.6305 19.5311 27.4301C19.8721 26.8594 20.3318 26.3374 20.8265 25.9175C23.2651 23.852 25.934 22.3815 29.1202 22.3295C29.424 22.3247 29.7266 22.206 29.99 22.1491C30.7507 19.4878 30.5738 16.8273 29.4511 14.8223C29.1292 14.2465 28.6808 13.7132 28.1877 13.3055C27.8679 13.0414 27.3638 13.0382 26.9832 12.9289C26.8191 13.2423 26.7119 13.3818 26.6663 13.5422C24.4676 21.2787 19.6299 26.794 13.7775 31.4193C11.9324 32.8777 9.77641 33.5827 7.4932 33.657C4.75225 33.7464 2.786 31.7334 2.63757 28.7646C2.60303 28.0798 2.62337 27.3912 2.61834 26.7315C2.50817 26.5682 2.43975 26.3962 2.31952 26.2989Z" fill="#4B4948" fill-opacity="0.6"/>
</g>
</g>
</g>
<defs>
<clipPath id="clip0_8_4025">
<rect width="40" height="38" fill="white" transform="translate(0 0.589844)"/>
</clipPath>
<clipPath id="clip1_8_4025">
<rect width="40" height="38" fill="white" transform="translate(0 0.589844)"/>
</clipPath>
<clipPath id="clip2_8_4025">
<rect width="40" height="38" fill="white" transform="translate(0 0.589844)"/>
</clipPath>
</defs>
</svg>
