<svg width="20" height="20" viewBox="0 0 20 20" fill="none" xmlns="http://www.w3.org/2000/svg">
<path d="M18.6047 19.7522C16.3477 19.7522 14.1179 19.2603 11.9151 18.2764C9.7123 17.2926 7.7082 15.8981 5.9026 14.0928C4.09705 12.2876 2.70226 10.2838 1.71823 8.0815C0.734197 5.8791 0.242188 3.64966 0.242188 1.39315C0.242188 1.06821 0.350518 0.797419 0.567188 0.580799C0.783848 0.364169 1.05469 0.255859 1.37969 0.255859H5.76719C6.01997 0.255859 6.24566 0.341609 6.44427 0.513099C6.64288 0.684599 6.76024 0.88768 6.79635 1.12236L7.5005 4.91332C7.5366 5.20215 7.5276 5.44585 7.4734 5.64443C7.4193 5.843 7.32 6.0145 7.1755 6.15891L4.54844 8.8126C4.90955 9.4805 5.33837 10.1259 5.8349 10.7487C6.33142 11.3715 6.8776 11.9717 7.4734 12.5494C8.0332 13.109 8.62 13.628 9.2339 14.1064C9.8477 14.5848 10.4977 15.0225 11.1839 15.4197L13.7297 12.8743C13.8922 12.7118 14.1043 12.59 14.3661 12.5088C14.628 12.4275 14.8852 12.405 15.138 12.4411L18.8755 13.1993C19.1283 13.2715 19.3359 13.4023 19.4984 13.5919C19.6609 13.7814 19.7422 13.9935 19.7422 14.2282V18.6149C19.7422 18.9398 19.6339 19.2106 19.4172 19.4272C19.2005 19.6439 18.9297 19.7522 18.6047 19.7522Z" fill="white"/>
</svg>
