<svg width="58" height="73" viewBox="0 0 58 73" fill="none" xmlns="http://www.w3.org/2000/svg">
<path d="M41.125 50.287C38.2038 48.5041 37.1557 48.6837 37.1557 45.1216C37.1557 43.8748 37.1557 41.5584 37.1557 39.4214C38.759 37.6409 39.3421 37.8625 40.6979 30.8721C43.4396 30.8721 43.262 27.31 44.5552 24.1502C45.6092 21.5772 44.7263 20.534 43.8385 20.1076C44.5642 10.7309 44.5642 4.27289 33.9214 2.26949C30.0636 -1.0371 24.2423 0.0855097 21.4837 0.63729C18.7275 1.18907 16.2411 0.63729 16.2411 0.63729L16.7146 5.08003C12.6785 9.92374 14.6968 16.3817 14.047 20.1642C13.2002 20.6255 12.4364 21.6892 13.4447 24.1502C14.7377 27.31 14.5601 30.8721 17.3019 30.8721C18.6578 37.8625 19.2407 37.6409 20.8441 39.4214C20.8441 41.5584 20.8441 43.8748 20.8441 45.1216C20.8441 48.6837 19.6335 48.745 16.875 50.287C10.2243 54.0044 1.55764 56.1642 0.00487065 67.7828C-0.279555 69.9078 11.922 72.2278 28.9999 72.2351C46.0779 72.2278 58.2789 69.9078 57.9951 67.7828C56.4424 56.1642 47.6963 54.2959 41.125 50.287Z" fill="#F69400"/>
</svg>
